<?xml version="1.0" standalone="no"?>
<!DOCTYPE svg PUBLIC "-//W3C//DTD SVG 20010904//EN"
 "http://www.w3.org/TR/2001/REC-SVG-20010904/DTD/svg10.dtd">
<svg version="1.0" xmlns="http://www.w3.org/2000/svg"
 width="512.000000pt" height="512.000000pt" viewBox="0 0 512.000000 512.000000"
 preserveAspectRatio="xMidYMid meet">
<metadata>
Santiago toloza
</metadata>
<g transform="translate(0.000000,512.000000) scale(0.100000,-0.100000)"
fill="#000000" stroke="none">
<path d="M2470 4084 c-19 -3 -83 -14 -143 -25 -461 -86 -834 -400 -1001 -842
-56 -149 -84 -392 -66 -585 9 -103 48 -295 65 -323 3 -4 0 -9 -6 -11 -8 -3 3
-38 31 -101 23 -54 47 -94 52 -91 6 4 7 -2 3 -16 -5 -15 -4 -20 4 -16 7 5 8 1
4 -10 -5 -13 -3 -15 7 -9 8 5 11 4 7 -3 -11 -16 87 -154 175 -248 101 -106
146 -133 58 -35 -101 114 -167 200 -204 271 -47 90 -115 248 -109 254 3 3 25
-35 49 -84 171 -352 497 -650 836 -766 169 -57 422 -74 593 -39 98 20 237 66
307 101 219 109 491 372 591 569 51 102 96 227 66 185 -12 -17 -11 -10 21 140
15 73 20 135 20 265 1 94 4 188 9 210 6 36 8 38 18 20 20 -36 35 -214 28 -320
-8 -119 -24 -209 -59 -329 -14 -49 -24 -91 -22 -93 6 -6 54 133 72 207 10 40
18 131 21 235 4 147 2 184 -16 272 -87 421 -329 776 -655 963 -45 25 -120 63
-168 84 -48 21 -99 51 -114 67 l-27 28 59 -15 c67 -17 259 -106 331 -154 47
-31 47 -31 16 -3 -98 88 -319 188 -492 223 -100 20 -289 33 -361 24z m-230
-104 c-36 -22 -96 -52 -135 -66 -95 -36 -200 -94 -276 -154 -61 -46 -65 -48
-82 -32 -18 16 -18 18 23 53 97 84 290 182 431 219 106 27 112 25 39 -20z
m133 -132 c18 -21 24 -53 7 -43 -13 8 -56 -64 -105 -175 l-41 -95 -90 -62
c-49 -34 -96 -62 -104 -63 -8 0 -69 -18 -134 -40 -66 -22 -123 -37 -127 -33
-26 29 -109 144 -109 153 0 6 35 46 77 91 85 88 209 177 346 246 96 48 109 64
31 37 -133 -45 -257 -126 -374 -243 -92 -93 -82 -63 14 45 88 99 223 179 403
243 l78 27 55 -34 c30 -19 63 -43 73 -54z m12 46 c39 -19 59 -31 45 -28 -14 3
-56 21 -95 40 -38 19 -59 31 -45 28 14 -4 57 -22 95 -40z m450 -11 c-80 -37
-81 -37 -220 -38 l-140 -2 135 6 c126 6 139 8 200 39 36 17 74 32 85 32 11 0
-16 -17 -60 -37z m245 0 c159 -59 369 -217 442 -333 21 -33 32 -97 18 -105 -6
-4 -10 6 -10 23 0 91 -238 304 -424 381 -111 45 -129 46 -42 1 211 -109 393
-278 421 -391 6 -23 0 -32 -39 -63 l-45 -37 -98 36 c-119 45 -134 52 -248 123
-118 73 -120 74 -145 141 -26 72 -57 124 -69 117 -5 -3 4 -45 19 -93 l28 -88
73 -44 c41 -25 126 -77 189 -116 63 -39 143 -81 178 -94 l63 -22 53 45 c40 34
56 42 65 33 17 -17 14 -22 -38 -66 l-48 -41 -49 15 c-27 8 -79 19 -116 25 -62
9 -75 16 -152 78 -46 37 -111 83 -145 102 -34 19 -74 43 -91 52 -24 14 -34 33
-61 117 -39 123 -34 140 56 188 33 17 65 36 70 42 13 13 64 4 145 -26z m-715
-134 c-10 -18 -35 -78 -56 -133 -21 -56 -38 -95 -39 -88 0 15 65 193 87 235 8
16 17 27 19 24 3 -3 -2 -20 -11 -38z m333 26 c8 -8 62 -211 62 -234 0 -22 -15
-36 -92 -88 -145 -96 -126 -93 -233 -28 -51 31 -95 62 -98 69 -6 14 29 116 69
206 40 89 48 93 179 85 60 -3 111 -8 113 -10z m172 -307 c0 -12 -47 -42 -155
-98 -86 -45 -161 -80 -168 -77 -6 2 47 38 118 80 170 99 175 103 175 135 l1
27 14 -25 c8 -14 14 -33 15 -42z m-1115 -136 l27 -41 41 15 c23 9 80 24 127
36 66 15 106 33 179 79 52 32 99 59 105 59 14 0 4 -8 -79 -65 -38 -27 -80 -57
-92 -68 -15 -13 -41 -21 -83 -24 -33 -2 -93 -13 -133 -23 l-72 -20 -29 33
c-41 46 -106 147 -106 165 0 14 57 -59 115 -146z m1363 9 c21 -18 22 -25 22
-183 0 -116 4 -169 13 -180 11 -15 201 -93 256 -105 14 -4 27 0 33 8 8 12 9
11 5 -1 -2 -8 -12 -16 -23 -18 -25 -4 -250 81 -275 104 -16 15 -19 35 -21 183
l-3 166 -89 67 c-49 37 -96 74 -105 84 -17 18 148 -93 187 -125z m-795 83 c57
-30 188 -116 183 -121 -3 -3 -36 12 -73 33 -37 21 -92 50 -120 65 -44 23 -50
32 -25 38 2 1 17 -6 35 -15z m-745 -13 c-26 -10 -62 -28 -80 -39 -34 -21 -113
-102 -100 -102 4 0 2 -4 -4 -8 -7 -4 -24 -34 -38 -67 -21 -47 -25 -52 -20 -25
8 46 46 138 78 192 21 34 26 39 26 21 0 -30 5 -29 84 12 37 19 75 35 84 35 9
-1 -4 -9 -30 -19z m761 -60 c103 -61 106 -66 92 -156 -16 -107 -14 -140 10
-187 l21 -42 -23 -19 c-46 -36 -302 -197 -314 -197 -16 0 -126 72 -144 93 -12
15 -11 20 4 37 10 11 39 34 66 50 79 51 82 61 74 216 -7 131 -7 134 13 134 28
0 30 -5 57 -128 15 -70 25 -101 30 -90 9 21 -29 204 -47 225 -7 8 -20 18 -30
22 -15 5 -7 14 38 44 31 20 64 37 72 37 9 0 45 -18 81 -39z m655 -32 c61 -66
66 -75 66 -117 0 -25 -7 -74 -16 -109 -15 -61 -15 -64 4 -81 11 -9 27 -29 36
-43 20 -32 18 -34 -108 -113 -120 -75 -131 -74 -255 10 -151 105 -151 105
-151 189 0 40 3 99 6 131 l6 59 157 72 c86 39 163 72 173 72 9 1 46 -31 82
-70z m-1274 -112 c0 -11 -5 -15 -11 -11 -8 4 -9 -4 -4 -27 5 -26 4 -31 -5 -19
-9 12 -10 5 -6 -30 4 -33 3 -40 -4 -25 -7 14 -8 -5 -5 -65 3 -61 1 -74 -5 -45
-7 37 -8 35 -7 -22 0 -62 -1 -63 -50 -115 -27 -29 -57 -65 -67 -80 -10 -15
-22 -25 -27 -22 -5 3 -21 29 -35 57 -24 47 -26 58 -21 142 5 91 26 167 81 289
23 52 24 57 7 42 -30 -27 -107 -183 -141 -283 l-29 -88 0 50 c-1 92 49 276 86
318 10 10 40 32 68 48 l50 29 62 -62 c35 -35 63 -71 63 -81z m312 6 c-2 -64 2
-117 12 -153 15 -58 14 -74 -3 -42 -13 25 -31 134 -31 194 0 36 15 98 24 98 1
0 0 -44 -2 -97z m1581 30 c52 -100 77 -192 77 -282 0 -93 -11 -117 -75 -159
-56 -38 -47 -41 -99 39 -23 35 -23 38 -9 90 16 62 12 162 -12 249 l-14 55 36
37 c21 21 42 38 49 38 6 0 27 -30 47 -67z m86 -103 c0 -10 -3 -8 -9 5 -12 27
-12 43 0 25 5 -8 9 -22 9 -30z m-242 -2 c-3 -7 -5 -2 -5 12 0 14 2 19 5 13 2
-7 2 -19 0 -25z m10 -155 c-2 -27 -3 -5 -3 47 0 52 1 74 3 48 2 -27 2 -69 0
-95z m260 -9 c6 -106 -5 -162 -36 -198 -22 -25 -89 -58 -109 -54 -11 2 1 13
33 29 72 37 99 93 99 209 0 47 -3 103 -7 125 -6 34 -5 36 4 15 6 -14 14 -70
16 -126z m-1039 -117 l162 -107 0 -58 c0 -113 -45 -355 -70 -377 -29 -26 -348
-137 -373 -129 -26 7 -183 96 -215 121 -18 15 -21 23 -13 49 8 27 -7 232 -24
344 -6 40 -28 22 199 167 71 45 133 80 138 77 4 -3 11 2 14 11 4 9 9 14 13 13
3 -2 79 -52 169 -111z m-922 58 l49 4 -49 -10 c-52 -11 -76 -7 -76 12 0 8 3 9
14 0 7 -6 33 -9 62 -6z m1384 1 c0 -6 -224 -134 -254 -145 -13 -6 -29 -5 -37
0 -10 6 -8 9 11 9 14 0 79 32 145 70 111 65 135 77 135 66z m-1325 -91 c80
-30 195 -89 222 -114 16 -15 21 -44 33 -170 7 -83 11 -153 9 -154 -34 -25
-297 -181 -310 -184 -23 -6 -105 53 -154 110 -19 22 -35 36 -35 31 0 -26 64
-115 107 -149 65 -52 72 -60 44 -45 -14 7 -47 33 -74 59 -77 71 -113 168 -123
331 l-7 95 47 62 c52 69 141 153 162 153 7 0 43 -11 79 -25z m1491 -27 c102
-41 106 -44 130 -90 19 -37 24 -63 24 -122 0 -198 -74 -332 -227 -414 -34 -17
-67 -32 -75 -32 -22 0 -242 206 -253 238 -6 16 -9 94 -7 178 l4 149 121 72
c94 56 128 72 150 68 15 -2 75 -24 133 -47z m195 -127 c24 -43 29 -65 29 -120
0 -77 -28 -199 -64 -278 -33 -71 -40 -68 -10 5 13 31 23 64 23 72 0 8 -11 -11
-24 -44 -14 -32 -30 -65 -37 -73 -12 -14 -200 -113 -215 -113 -4 0 21 20 57
44 148 99 210 211 226 406 5 71 4 79 -30 148 -20 41 -36 81 -36 89 0 15 10 -2
81 -136z m-2140 17 c7 -12 33 -45 59 -73 44 -46 48 -56 59 -129 13 -81 43
-179 62 -202 8 -10 6 -28 -5 -68 -31 -107 -18 -161 64 -265 23 -29 40 -55 37
-57 -6 -6 -107 120 -149 186 -103 162 -168 333 -189 501 -11 82 -10 91 6 109
24 26 41 25 56 -2z m1518 -55 c-5 -38 -8 -113 -8 -169 l-1 -101 123 -115 c67
-63 133 -122 147 -131 22 -15 22 -17 5 -17 -11 0 -33 7 -49 15 -40 21 -243
193 -250 212 -7 16 22 351 30 365 10 15 10 7 3 -59z m853 -19 c19 -105 -3
-279 -51 -406 -24 -62 -79 -120 -139 -145 -33 -14 -37 -13 -49 3 -20 27 -16
43 31 135 61 119 83 221 67 314 -7 39 -8 71 -3 73 5 1 33 18 63 36 30 19 58
33 64 32 5 -2 13 -20 17 -42z m-1642 -254 c0 -19 -285 -195 -300 -185 -10 6
274 194 293 195 4 0 7 -4 7 -10z m46 -72 c5 -7 2 -9 -7 -4 -40 21 49 -42 134
-96 53 -34 102 -67 108 -74 13 -16 -26 -178 -48 -196 -56 -46 -237 56 -352
197 l-32 40 27 -55 26 -55 -50 49 c-55 53 -67 55 -130 16 -30 -19 -32 -22 -26
-62 3 -24 17 -74 29 -113 28 -86 25 -98 -5 -18 -32 85 -45 170 -30 188 19 23
142 85 153 78 6 -4 7 -1 2 7 -6 10 -4 12 9 7 9 -4 15 -3 12 2 -7 10 22 23 34
16 5 -3 12 0 16 6 4 8 3 9 -4 5 -7 -4 -12 -5 -12 -2 0 12 81 46 93 40 7 -4 8
-3 4 1 -4 5 3 15 15 22 28 15 25 15 34 1z m798 -148 c88 -74 128 -115 136
-138 8 -22 10 -79 6 -170 -5 -133 -6 -137 -31 -155 -57 -42 -177 -97 -211 -97
-51 0 -225 37 -290 61 -48 18 -61 29 -91 77 -45 70 -50 111 -28 243 28 175 16
160 168 213 73 26 146 53 162 61 17 7 35 13 42 12 7 -1 68 -49 137 -107z m441
30 c-3 -5 -16 -15 -28 -21 -19 -9 -19 -8 3 10 28 23 34 26 25 11z m-85 -55 c0
-3 -33 -21 -72 -41 -40 -20 -76 -42 -80 -48 -6 -8 -8 -7 -8 1 0 7 35 31 78 52
86 44 82 43 82 36z m-1260 -152 c25 -17 64 -40 88 -52 l42 -22 -61 -79 -62
-79 -34 14 c-85 36 -120 83 -162 219 -27 88 -27 90 11 114 l32 21 51 -53 c27
-29 70 -67 95 -83z m1097 -110 c-2 -16 -4 -3 -4 27 0 30 2 43 4 28 2 -16 2
-40 0 -55z m-1355 -69 c12 -3 58 -34 102 -68 45 -34 123 -88 174 -120 50 -32
92 -60 92 -63 0 -12 -213 115 -285 170 -39 30 -39 30 -15 3 28 -31 151 -114
250 -170 78 -43 72 -48 -9 -7 -113 57 -265 169 -351 257 -73 75 -78 81 -32 46
28 -22 62 -44 74 -48z m87 36 c11 -24 11 -24 -3 -6 -9 11 -16 24 -16 30 0 12
5 7 19 -24z m1571 -19 c0 -27 -227 -189 -355 -253 -64 -32 -206 -88 -223 -88
-4 0 17 14 46 30 29 16 69 42 87 59 65 56 180 128 258 161 43 18 99 47 125 65
51 35 62 40 62 26z m-313 -23 c-3 -8 -6 -5 -6 6 -1 11 2 17 5 13 3 -3 4 -12 1
-19z m-657 -198 c35 -18 133 -48 259 -80 23 -6 41 -13 39 -15 -7 -7 -231 52
-293 77 -56 23 -64 24 -115 12 -30 -7 -71 -13 -90 -13 -25 1 -15 5 34 15 38 7
71 16 74 19 11 11 54 4 92 -15z m145 -82 c66 -17 122 -32 124 -35 3 -2 -5 -14
-17 -26 -21 -21 -31 -22 -160 -21 -131 1 -230 16 -304 45 -30 12 -31 13 -22
45 5 19 18 24 82 33 42 6 78 13 80 15 2 3 25 -2 50 -10 26 -8 101 -29 167 -46z"/>
<path d="M2365 2835 c-77 -52 -151 -107 -164 -122 -24 -27 -24 -29 -16 -158 5
-71 8 -153 7 -182 l-1 -52 62 -39 c34 -21 86 -51 116 -66 l54 -28 116 42 c64
24 144 55 177 70 69 31 74 39 93 160 24 154 31 232 20 252 -6 11 -56 49 -112
85 -56 36 -125 81 -154 99 -28 19 -53 34 -55 33 -2 0 -66 -43 -143 -94z"/>
<path d="M1327 2688 c-17 -13 -14 -18 36 -73 l54 -60 -5 -56 c-3 -40 3 -86 22
-160 14 -58 26 -118 26 -134 0 -16 12 -47 28 -69 l27 -40 2 30 c2 16 8 53 14
81 9 47 7 61 -16 129 -14 43 -30 109 -37 148 -9 59 -17 78 -47 111 -20 22 -47
55 -61 73 -22 29 -27 32 -43 20z"/>
<path d="M3467 3792 c234 -201 435 -542 482 -817 19 -110 21 -115 34 -112 6 1
22 -19 35 -45 19 -38 25 -73 32 -175 l9 -128 -4 155 c-7 249 -46 424 -140 616
-89 182 -225 345 -416 495 -105 83 -123 89 -32 11z"/>
<path d="M1116 2932 c-26 -114 -39 -260 -32 -367 5 -86 39 -276 62 -354 5 -18
4 -22 -6 -16 -34 21 19 -183 77 -300 195 -391 566 -653 1078 -762 114 -24 151
-27 300 -27 139 1 184 4 250 22 93 24 114 22 29 -3 -140 -41 -206 -49 -404
-49 -191 0 -259 9 -420 50 -62 17 -2 -10 113 -50 l126 -44 -62 -6 c-34 -3
-100 -9 -147 -13 l-85 -6 120 -24 c168 -34 424 -42 567 -18 317 52 586 200
843 467 124 128 165 178 75 91 -42 -40 -80 -73 -86 -73 -5 0 -15 14 -21 31 -9
24 -16 29 -25 22 -314 -256 -603 -357 -943 -328 l-90 8 105 23 c121 27 246 67
410 131 344 134 625 344 751 563 l20 35 -23 -30 c-54 -70 -284 -276 -403 -360
-157 -112 -363 -204 -527 -236 -153 -30 -382 -9 -543 48 -178 64 -394 204
-557 362 -32 30 -58 50 -58 42 0 -13 208 -226 300 -306 50 -44 52 -46 15 -24
-123 71 -260 195 -309 279 -18 30 -62 94 -98 142 -36 48 -83 122 -104 163 -26
50 -45 75 -56 75 -16 0 -16 -4 3 -52 48 -123 74 -176 145 -295 29 -50 -124
116 -166 180 -88 133 -168 327 -205 497 -25 114 -31 374 -12 485 9 49 14 91
12 93 -1 2 -10 -28 -19 -66z m1934 -1742 c-8 -5 -19 -10 -25 -10 -5 0 -3 5 5
10 8 5 20 10 25 10 6 0 3 -5 -5 -10z m-50 -20 c-8 -5 -19 -10 -25 -10 -5 0 -3
5 5 10 8 5 20 10 25 10 6 0 3 -5 -5 -10z"/>
<path d="M4042 2460 c0 -14 2 -19 5 -12 2 6 2 18 0 25 -3 6 -5 1 -5 -13z"/>
</g>
</svg>